<?xml version="1.0" encoding="UTF-8" standalone="no"?>
<svg
   xmlns:dc="http://purl.org/dc/elements/1.1/"
   xmlns:cc="http://creativecommons.org/ns#"
   xmlns:rdf="http://www.w3.org/1999/02/22-rdf-syntax-ns#"
   xmlns:svg="http://www.w3.org/2000/svg"
   xmlns="http://www.w3.org/2000/svg"
   xmlns:sodipodi="http://sodipodi.sourceforge.net/DTD/sodipodi-0.dtd"
   xmlns:inkscape="http://www.inkscape.org/namespaces/inkscape"
   width="24"
   height="24"
   viewBox="0 0 24 24"
   fill="none"
   stroke="currentColor"
   stroke-width="2"
   stroke-linecap="round"
   stroke-linejoin="round"
   class="feather feather-help-circle"
   version="1.1"
   id="svg862"
   sodipodi:docname="help-circle.svg"
   inkscape:version="0.92.3 (2405546, 2018-03-11)">
  <metadata
     id="metadata868">
    <rdf:RDF>
      <cc:Work
         rdf:about="">
        <dc:format>image/svg+xml</dc:format>
        <dc:type
           rdf:resource="http://purl.org/dc/dcmitype/StillImage" />
      </cc:Work>
    </rdf:RDF>
  </metadata>
  <defs
     id="defs866" />
  <sodipodi:namedview
     pagecolor="#ffffff"
     bordercolor="#666666"
     borderopacity="1"
     objecttolerance="10"
     gridtolerance="10"
     guidetolerance="10"
     inkscape:pageopacity="0"
     inkscape:pageshadow="2"
     inkscape:window-width="1076"
     inkscape:window-height="1881"
     id="namedview864"
     showgrid="false"
     inkscape:zoom="25.666667"
     inkscape:cx="12.661205"
     inkscape:cy="10.968504"
     inkscape:window-x="0"
     inkscape:window-y="18"
     inkscape:window-maximized="0"
     inkscape:current-layer="svg862" />
  <circle
     cx="12"
     cy="12"
     r="10"
     id="circle856" />
  <path
     d="M9.09 9a3 3 0 0 1 5.83 1c0 2-3 3-3 3"
     id="path858" />
  <line
     x1="12"
     y1="17"
     x2="12.01"
     y2="17"
     id="line860" />
  <path
     style="fill:#787878;fill-opacity:1;stroke-width:0.07792208"
     d="M 11.344322,20.962945 C 9.4447321,20.784309 7.8230229,20.143684 6.3767892,19.000617 6.2053606,18.865124 5.8634624,18.551026 5.6170153,18.302621 3.3745893,16.042384 2.5056927,12.784597 3.3213499,9.6953975 4.1434334,6.5818594 6.6566809,4.0911492 9.7741956,3.3004169 10.607178,3.0891378 10.960588,3.0487217 11.987179,3.0473396 c 1.023548,-0.00138 1.384543,0.039912 2.249353,0.2572756 3.046327,0.765673 5.530188,3.1828389 6.397819,6.2260289 0.259565,0.9104149 0.313442,1.3374129 0.312435,2.4761769 -7.09e-4,0.802434 -0.01548,1.093969 -0.07106,1.402598 -0.170975,0.949379 -0.405926,1.679431 -0.808752,2.512987 -1.286849,2.662845 -3.820904,4.520538 -6.7746,4.966399 -0.402231,0.06072 -1.604305,0.106466 -1.948052,0.07414 z m 0.958916,-2.994207 c 0.667508,-0.198229 0.934425,-1.028896 0.509591,-1.585891 -0.186415,-0.244406 -0.476685,-0.382737 -0.800878,-0.381664 -0.436145,0.0014 -0.749827,0.192645 -0.925423,0.56408 -0.252867,0.534884 0.02168,1.195289 0.576597,1.386943 0.253681,0.08761 0.388982,0.09111 0.640113,0.01653 z m 0.02608,-4.035929 c 0.401312,-0.13335 1.228303,-0.55592 1.683757,-0.860354 0.489136,-0.326948 1.091407,-0.898614 1.34344,-1.275171 0.199211,-0.297637 0.391067,-0.710496 0.491047,-1.056697 0.114296,-0.395767 0.09784,-1.2224549 -0.03429,-1.7223039 C 15.436313,7.5921692 14.369557,6.5072179 12.959561,6.1158937 12.607189,6.0180978 12.512615,6.00829 11.928737,6.0089925 11.455823,6.0095614 11.216489,6.0272224 11.023387,6.0758 9.9101034,6.3558637 9.0061302,7.0265047 8.4507534,7.9843903 8.1703707,8.4679798 8.0931195,8.6889793 8.0933592,9.0068211 8.0935929,9.3218749 8.1686985,9.5104186 8.3768782,9.7185984 8.6695497,10.01127 9.145373,10.089185 9.5342256,9.9081119 9.7860795,9.7908333 9.8995103,9.6528041 10.117806,9.1979776 c 0.357593,-0.7450578 1.026406,-1.1819899 1.812486,-1.1840871 0.951304,-0.00254 1.807321,0.7521463 1.949769,1.7189637 0.05211,0.3536678 -0.0034,0.6041378 -0.199298,0.8999508 -0.31047,0.468725 -1.094732,1.008307 -1.972115,1.356841 -0.382617,0.151992 -0.566132,0.298195 -0.692433,0.551648 -0.206329,0.414046 -0.09492,0.964931 0.250478,1.238487 0.304528,0.241191 0.64831,0.290699 1.062624,0.153028 z"
     id="path870"
     inkscape:connector-curvature="0" />
</svg>
