<?xml version="1.0" encoding="UTF-8" standalone="no"?>
<svg
   xmlns:dc="http://purl.org/dc/elements/1.1/"
   xmlns:cc="http://creativecommons.org/ns#"
   xmlns:rdf="http://www.w3.org/1999/02/22-rdf-syntax-ns#"
   xmlns:svg="http://www.w3.org/2000/svg"
   xmlns="http://www.w3.org/2000/svg"
   xmlns:sodipodi="http://sodipodi.sourceforge.net/DTD/sodipodi-0.dtd"
   xmlns:inkscape="http://www.inkscape.org/namespaces/inkscape"
   width="24"
   height="24"
   viewBox="0 0 24 24"
   fill="none"
   stroke="currentColor"
   stroke-width="2"
   stroke-linecap="round"
   stroke-linejoin="round"
   class="feather feather-arrow-up-circle"
   version="1.1"
   id="svg3828"
   sodipodi:docname="up.svg"
   inkscape:version="0.92.3 (2405546, 2018-03-11)">
  <metadata
     id="metadata3834">
    <rdf:RDF>
      <cc:Work
         rdf:about="">
        <dc:format>image/svg+xml</dc:format>
        <dc:type
           rdf:resource="http://purl.org/dc/dcmitype/StillImage" />
      </cc:Work>
    </rdf:RDF>
  </metadata>
  <defs
     id="defs3832" />
  <sodipodi:namedview
     pagecolor="#ffffff"
     bordercolor="#666666"
     borderopacity="1"
     objecttolerance="10"
     gridtolerance="10"
     guidetolerance="10"
     inkscape:pageopacity="0"
     inkscape:pageshadow="2"
     inkscape:window-width="1076"
     inkscape:window-height="1881"
     id="namedview3830"
     showgrid="false"
     inkscape:zoom="39.333333"
     inkscape:cx="11.611335"
     inkscape:cy="16.641855"
     inkscape:window-x="0"
     inkscape:window-y="18"
     inkscape:window-maximized="0"
     inkscape:current-layer="svg3828" />
  <circle
     cx="12"
     cy="12"
     r="10"
     id="circle3822" />
  <polyline
     points="16 12 12 8 8 12"
     id="polyline3824" />
  <line
     x1="12"
     y1="16"
     x2="12"
     y2="8"
     id="line3826" />
  <path
     style="fill:#4bff7f;stroke-width:0.20338982;fill-opacity:1"
     d="M 10.637288,20.857696 C 9.7145946,20.717248 8.4462108,20.2622 7.512985,19.736814 6.5926302,19.218674 5.097269,17.796379 4.4863415,16.858059 3.2001732,14.882639 2.7454467,12.223821 3.3024212,9.9355932 4.6031106,4.5919505 10.296819,1.6676528 15.387222,3.7288212 c 2.686901,1.087961 4.76855,3.5882823 5.377054,6.4585218 0.212934,1.004379 0.183618,2.83211 -0.06185,3.856064 -0.223598,0.932726 -0.808841,2.268796 -1.317915,3.008709 -0.860583,1.250815 -2.41105,2.538076 -3.79335,3.149395 -1.370179,0.605958 -3.462812,0.883146 -4.953873,0.656185 z m 1.97902,-4.013558 c 0.415535,-0.27227 0.461658,-0.625653 0.461658,-3.537154 v -2.750801 l 1.254831,1.240552 c 1.080394,1.0681 1.300218,1.240553 1.581321,1.240553 0.46212,0 0.876564,-0.243954 1.025566,-0.603679 0.271324,-0.655034 0.154944,-0.822188 -2.235469,-3.2107485 L 12.466062,6.9864407 H 12.007458 11.548854 L 9.2625625,9.279152 c -2.1710257,2.177122 -2.2862913,2.312044 -2.2862913,2.676177 0,0.489503 0.1344763,0.736015 0.506439,0.928364 0.6672132,0.34503 0.8450362,0.257365 2.2048313,-1.086958 l 1.2548315,-1.240552 v 2.821874 c 0,2.970395 0.03939,3.257085 0.483048,3.515491 0.269183,0.156784 0.917229,0.129896 1.190887,-0.04941 z"
     id="path4679"
     inkscape:connector-curvature="0" />
</svg>
