<?xml version="1.0" encoding="UTF-8" standalone="no"?>
<svg
   xmlns:dc="http://purl.org/dc/elements/1.1/"
   xmlns:cc="http://creativecommons.org/ns#"
   xmlns:rdf="http://www.w3.org/1999/02/22-rdf-syntax-ns#"
   xmlns:svg="http://www.w3.org/2000/svg"
   xmlns="http://www.w3.org/2000/svg"
   xmlns:sodipodi="http://sodipodi.sourceforge.net/DTD/sodipodi-0.dtd"
   xmlns:inkscape="http://www.inkscape.org/namespaces/inkscape"
   width="24"
   height="24"
   viewBox="0 0 24 24"
   fill="none"
   stroke="currentColor"
   stroke-width="2"
   stroke-linecap="round"
   stroke-linejoin="round"
   class="feather feather-alert-triangle"
   version="1.1"
   id="svg5279"
   sodipodi:docname="warning.svg"
   inkscape:version="0.92.3 (2405546, 2018-03-11)">
  <metadata
     id="metadata5285">
    <rdf:RDF>
      <cc:Work
         rdf:about="">
        <dc:format>image/svg+xml</dc:format>
        <dc:type
           rdf:resource="http://purl.org/dc/dcmitype/StillImage" />
      </cc:Work>
    </rdf:RDF>
  </metadata>
  <defs
     id="defs5283" />
  <sodipodi:namedview
     pagecolor="#ffffff"
     bordercolor="#666666"
     borderopacity="1"
     objecttolerance="10"
     gridtolerance="10"
     guidetolerance="10"
     inkscape:pageopacity="0"
     inkscape:pageshadow="2"
     inkscape:window-width="1076"
     inkscape:window-height="1881"
     id="namedview5281"
     showgrid="false"
     inkscape:zoom="55.625734"
     inkscape:cx="11.054679"
     inkscape:cy="12.523748"
     inkscape:window-x="0"
     inkscape:window-y="18"
     inkscape:window-maximized="0"
     inkscape:current-layer="svg5279" />
  <path
     d="M10.29 3.86L1.82 18a2 2 0 0 0 1.71 3h16.94a2 2 0 0 0 1.71-3L13.71 3.86a2 2 0 0 0-3.42 0z"
     id="path5273" />
  <line
     x1="12"
     y1="9"
     x2="12"
     y2="13"
     id="line5275" />
  <line
     x1="12"
     y1="17"
     x2="12.01"
     y2="17"
     id="line5277" />
  <path
     style="fill:#ff9f40;fill-opacity:1;stroke-width:0.07190917"
     d="M 3.2610086,19.936817 C 2.949506,19.825502 2.7248086,19.603404 2.6237612,19.306942 2.5703431,19.150219 2.5703038,18.844535 2.6236821,18.691414 2.6740393,18.546959 11.186833,4.3242481 11.28767,4.2160956 c 0.03907,-0.041902 0.155147,-0.1227971 0.257953,-0.1797674 0.159376,-0.088317 0.226662,-0.1035824 0.456582,-0.1035824 0.231852,0 0.29673,0.014993 0.462744,0.106937 0.106197,0.058815 0.230659,0.1561987 0.276582,0.2164075 0.123219,0.1615474 8.495034,14.1352897 8.594908,14.3461137 0.23484,0.495726 -0.02462,1.115178 -0.549333,1.311497 -0.193261,0.07231 -0.247224,0.07275 -8.795239,0.07118 -6.9382786,-0.0013 -8.6259277,-0.01056 -8.7308584,-0.04806 z m 9.2447934,-2.056871 c 0.198085,-0.107371 0.376123,-0.314367 0.455452,-0.529534 0.06739,-0.182778 0.05644,-0.595084 -0.02029,-0.764015 -0.161408,-0.35537 -0.469722,-0.560797 -0.877726,-0.584825 -0.432591,-0.02548 -0.769469,0.16352 -0.955676,0.536154 -0.288962,0.578264 -0.0113,1.237107 0.606773,1.43977 0.04957,0.01625 0.204463,0.02451 0.344216,0.01835 0.198453,-0.0087 0.296396,-0.03413 0.447251,-0.115898 z m -0.181215,-3.918854 c 0.141766,-0.0421 0.240028,-0.105318 0.37771,-0.242999 0.318227,-0.318227 0.306636,-0.215399 0.306636,-2.720283 0,-2.4231194 0.0046,-2.3725331 -0.239689,-2.6578845 -0.199739,-0.2333509 -0.440964,-0.3404036 -0.767039,-0.3404036 -0.316261,0 -0.560654,0.1037635 -0.748622,0.3178483 -0.255666,0.2911871 -0.239049,0.1161182 -0.250147,2.6354278 -0.01,2.262917 -0.0096,2.274944 0.0678,2.454958 0.0475,0.110426 0.147498,0.243546 0.256675,0.341706 0.281759,0.253325 0.616748,0.324455 0.996673,0.21163 z"
     id="path5301"
     inkscape:connector-curvature="0" />
</svg>
